<mxfile host="app.diagrams.net" modified="2023-06-03T15:15:27.231Z" agent="Mozilla/5.0 (Macintosh; Intel Mac OS X 10_15_7) AppleWebKit/537.36 (KHTML, like Gecko) Chrome/112.0.0.0 Safari/537.36" etag="LYpTAd3JsS5dDLVC0CNC" version="21.3.6" type="github">
  <diagram name="Page-1" id="e7e014a7-5840-1c2e-5031-d8a46d1fe8dd">
    <mxGraphModel dx="954" dy="559" grid="1" gridSize="10" guides="1" tooltips="1" connect="1" arrows="1" fold="1" page="1" pageScale="1" pageWidth="1169" pageHeight="826" background="none" math="0" shadow="0">
      <root>
        <mxCell id="0" />
        <mxCell id="1" parent="0" />
        <mxCell id="2" value="WasteFood" style="swimlane;whiteSpace=wrap" parent="1" vertex="1">
          <mxGeometry x="20" y="140" width="280" height="570" as="geometry" />
        </mxCell>
        <mxCell id="c6bQ5hyz9KUwbdbwjpx0-61" value="Show WastFood&amp;nbsp;&lt;br&gt;Management" style="whiteSpace=wrap;html=1;verticalAlign=top;" vertex="1" parent="2">
          <mxGeometry x="84" y="243" width="110" height="47" as="geometry" />
        </mxCell>
        <mxCell id="3" value="Driver" style="swimlane;whiteSpace=wrap" parent="1" vertex="1">
          <mxGeometry x="300" y="140" width="280" height="570" as="geometry">
            <mxRectangle x="444.5" y="128" width="90" height="30" as="alternateBounds" />
          </mxGeometry>
        </mxCell>
        <mxCell id="23" value="no" style="edgeStyle=elbowEdgeStyle;elbow=horizontal;align=left;verticalAlign=top;endArrow=open;endSize=8;strokeColor=#FF0000;endFill=1;rounded=0" parent="3" source="21" edge="1">
          <mxGeometry x="-1" relative="1" as="geometry">
            <mxPoint x="190" y="325" as="targetPoint" />
          </mxGeometry>
        </mxCell>
        <mxCell id="c6bQ5hyz9KUwbdbwjpx0-67" value="Show Driver Position" style="whiteSpace=wrap;html=1;verticalAlign=top;" vertex="1" parent="3">
          <mxGeometry x="20" y="256" width="120" height="34" as="geometry" />
        </mxCell>
        <mxCell id="c6bQ5hyz9KUwbdbwjpx0-72" value="" style="edgeStyle=orthogonalEdgeStyle;rounded=0;orthogonalLoop=1;jettySize=auto;html=1;strokeColor=#FF0000;" edge="1" parent="3" source="c6bQ5hyz9KUwbdbwjpx0-69" target="c6bQ5hyz9KUwbdbwjpx0-71">
          <mxGeometry relative="1" as="geometry" />
        </mxCell>
        <mxCell id="c6bQ5hyz9KUwbdbwjpx0-69" value="Contact Driver" style="whiteSpace=wrap;html=1;verticalAlign=top;" vertex="1" parent="3">
          <mxGeometry x="170" y="256" width="100" height="34" as="geometry" />
        </mxCell>
        <mxCell id="c6bQ5hyz9KUwbdbwjpx0-71" value="Delivering" style="ellipse;whiteSpace=wrap;html=1;verticalAlign=top;" vertex="1" parent="3">
          <mxGeometry x="180" y="330" width="80" height="33" as="geometry" />
        </mxCell>
        <mxCell id="4" value="Farmers" style="swimlane;whiteSpace=wrap" parent="1" vertex="1">
          <mxGeometry x="580" y="140" width="280" height="570" as="geometry" />
        </mxCell>
        <mxCell id="c6bQ5hyz9KUwbdbwjpx0-54" value="" style="edgeStyle=orthogonalEdgeStyle;rounded=0;orthogonalLoop=1;jettySize=auto;html=1;strokeColor=#FF0000;" edge="1" parent="4">
          <mxGeometry relative="1" as="geometry">
            <mxPoint x="125" y="128" as="sourcePoint" />
            <mxPoint x="125" y="148" as="targetPoint" />
          </mxGeometry>
        </mxCell>
        <mxCell id="c6bQ5hyz9KUwbdbwjpx0-50" value="Farmer" style="shape=umlActor;verticalLabelPosition=bottom;verticalAlign=top;html=1;outlineConnect=0;" vertex="1" parent="4">
          <mxGeometry x="110" y="40" width="30" height="60" as="geometry" />
        </mxCell>
        <mxCell id="c6bQ5hyz9KUwbdbwjpx0-53" value="Login" style="whiteSpace=wrap;html=1;verticalAlign=top;" vertex="1" parent="4">
          <mxGeometry x="85" y="150" width="80" height="30" as="geometry" />
        </mxCell>
        <mxCell id="c6bQ5hyz9KUwbdbwjpx0-73" value="Upload" style="ellipse;whiteSpace=wrap;html=1;verticalAlign=top;" vertex="1" parent="4">
          <mxGeometry x="85" y="330" width="80" height="33" as="geometry" />
        </mxCell>
        <mxCell id="c6bQ5hyz9KUwbdbwjpx0-41" value="Company" style="swimlane;whiteSpace=wrap;strokeColor=#FFFFFF;" vertex="1" parent="1">
          <mxGeometry x="860" y="140" width="280" height="570" as="geometry" />
        </mxCell>
        <mxCell id="c6bQ5hyz9KUwbdbwjpx0-63" value="Book" style="whiteSpace=wrap;html=1;verticalAlign=top;" vertex="1" parent="c6bQ5hyz9KUwbdbwjpx0-41">
          <mxGeometry x="40" y="256" width="80" height="30" as="geometry" />
        </mxCell>
        <mxCell id="c6bQ5hyz9KUwbdbwjpx0-75" value="Report" style="whiteSpace=wrap;html=1;verticalAlign=top;" vertex="1" parent="c6bQ5hyz9KUwbdbwjpx0-41">
          <mxGeometry x="170" y="256" width="80" height="30" as="geometry" />
        </mxCell>
        <mxCell id="c6bQ5hyz9KUwbdbwjpx0-62" value="" style="edgeStyle=orthogonalEdgeStyle;rounded=0;orthogonalLoop=1;jettySize=auto;html=1;strokeColor=#FF0000;" edge="1" parent="1" source="c6bQ5hyz9KUwbdbwjpx0-53" target="c6bQ5hyz9KUwbdbwjpx0-61">
          <mxGeometry relative="1" as="geometry">
            <Array as="points">
              <mxPoint x="705" y="350" />
              <mxPoint x="160" y="350" />
            </Array>
          </mxGeometry>
        </mxCell>
        <mxCell id="c6bQ5hyz9KUwbdbwjpx0-64" value="" style="edgeStyle=orthogonalEdgeStyle;rounded=0;orthogonalLoop=1;jettySize=auto;html=1;strokeColor=#FF0000;" edge="1" parent="1" source="c6bQ5hyz9KUwbdbwjpx0-53" target="c6bQ5hyz9KUwbdbwjpx0-63">
          <mxGeometry relative="1" as="geometry">
            <Array as="points">
              <mxPoint x="705" y="350" />
              <mxPoint x="940" y="350" />
            </Array>
          </mxGeometry>
        </mxCell>
        <mxCell id="c6bQ5hyz9KUwbdbwjpx0-68" value="" style="edgeStyle=orthogonalEdgeStyle;rounded=0;orthogonalLoop=1;jettySize=auto;html=1;strokeColor=#FF0000;" edge="1" parent="1" source="c6bQ5hyz9KUwbdbwjpx0-53" target="c6bQ5hyz9KUwbdbwjpx0-67">
          <mxGeometry relative="1" as="geometry">
            <Array as="points">
              <mxPoint x="705" y="350" />
              <mxPoint x="380" y="350" />
            </Array>
          </mxGeometry>
        </mxCell>
        <mxCell id="c6bQ5hyz9KUwbdbwjpx0-70" value="" style="edgeStyle=orthogonalEdgeStyle;rounded=0;orthogonalLoop=1;jettySize=auto;html=1;strokeColor=#FF0000;" edge="1" parent="1" source="c6bQ5hyz9KUwbdbwjpx0-53" target="c6bQ5hyz9KUwbdbwjpx0-69">
          <mxGeometry relative="1" as="geometry">
            <Array as="points">
              <mxPoint x="705" y="350" />
              <mxPoint x="520" y="350" />
            </Array>
          </mxGeometry>
        </mxCell>
        <mxCell id="c6bQ5hyz9KUwbdbwjpx0-74" value="" style="edgeStyle=orthogonalEdgeStyle;rounded=0;orthogonalLoop=1;jettySize=auto;html=1;strokeColor=#FF0000;" edge="1" parent="1" source="c6bQ5hyz9KUwbdbwjpx0-71" target="c6bQ5hyz9KUwbdbwjpx0-73">
          <mxGeometry relative="1" as="geometry" />
        </mxCell>
        <mxCell id="c6bQ5hyz9KUwbdbwjpx0-76" value="" style="edgeStyle=orthogonalEdgeStyle;rounded=0;orthogonalLoop=1;jettySize=auto;html=1;strokeColor=#FF0000;" edge="1" parent="1" source="c6bQ5hyz9KUwbdbwjpx0-53" target="c6bQ5hyz9KUwbdbwjpx0-75">
          <mxGeometry relative="1" as="geometry">
            <Array as="points">
              <mxPoint x="705" y="350" />
              <mxPoint x="1070" y="350" />
            </Array>
          </mxGeometry>
        </mxCell>
      </root>
    </mxGraphModel>
  </diagram>
</mxfile>
